<?xml version="1.0" encoding="UTF-8" standalone="no"?>
<!-- Uploaded to: SVG Repo, www.svgrepo.com, Generator: SVG Repo Mixer Tools -->

<svg
   width="512"
   height="512"
   viewBox="0 0 12.8 12.8"
   version="1.1"
   id="svg1"
   sodipodi:docname="github-logo.svg"
   inkscape:version="1.4.2 (f4327f4, 2025-05-13)"
   xmlns:inkscape="http://www.inkscape.org/namespaces/inkscape"
   xmlns:sodipodi="http://sodipodi.sourceforge.net/DTD/sodipodi-0.dtd"
   xmlns="http://www.w3.org/2000/svg"
   xmlns:svg="http://www.w3.org/2000/svg"
   xmlns:rdf="http://www.w3.org/1999/02/22-rdf-syntax-ns#"
   xmlns:cc="http://creativecommons.org/ns#"
   xmlns:dc="http://purl.org/dc/elements/1.1/">
  <sodipodi:namedview
     id="namedview1"
     pagecolor="#505050"
     bordercolor="#eeeeee"
     borderopacity="1"
     inkscape:showpageshadow="0"
     inkscape:pageopacity="0"
     inkscape:pagecheckerboard="0"
     inkscape:deskcolor="#505050"
     inkscape:zoom="1.04"
     inkscape:cx="220.19231"
     inkscape:cy="322.11538"
     inkscape:window-width="1920"
     inkscape:window-height="1009"
     inkscape:window-x="1432"
     inkscape:window-y="-8"
     inkscape:window-maximized="1"
     inkscape:current-layer="svg1" />
  <title
     id="title1">github [#142]</title>
  <desc
     id="desc1">Created with Sketch.</desc>
  <defs
     id="defs1" />
  <path
     d="m 6.3999763,0 c 3.5347069,0 6.3999767,2.9375891 6.3999767,6.5618957 0,2.8985492 -1.831674,5.3574203 -4.3731042,6.2258973 -0.3244788,0.06464 -0.4396784,-0.14016 -0.4396784,-0.314879 0,-0.216319 0.00768,-0.922877 0.00768,-1.800954 0,-0.611837 -0.2047993,-1.0111958 -0.4345584,-1.2147151 1.4252747,-0.1625593 2.922869,-0.7174373 2.922869,-3.237748 0,-0.7167973 -0.248319,-1.3017551 -0.6591974,-1.7612734 0.06656,-0.1657594 0.2860794,-0.8332769 -0.06272,-1.7369536 0,0 -0.536318,-0.1759993 -1.7580735,0.6726375 C 7.4918122,3.248628 6.9439743,3.1756682 6.3999763,3.1731082 c -0.543998,0 -1.091196,0.07552 -1.6019141,0.2207992 C 3.5750267,2.5452706 3.0374287,2.7212699 3.0374287,2.7212699 2.68991,3.6249466 2.9094292,4.2924641 2.975349,4.4582235 2.5663905,4.9177418 2.3161514,5.5026996 2.3161514,6.2194969 c 0,2.5139107 1.4943945,3.0771086 2.9158292,3.242868 C 5.0489413,9.6262043 4.8831819,9.9154832 4.8255821,10.339802 4.4607835,10.507481 3.5340669,10.7974 2.963189,9.7945237 c 0,0 -0.3385587,-0.6303977 -0.9811163,-0.6764775 0,0 -0.6239977,-0.00832 -0.04352,0.3987185 0,0 0.4191985,0.2015993 0.7103974,0.9599963 0,0 0.3756786,1.171196 2.156152,0.774397 0.0032,0.548478 0.00896,1.065596 0.00896,1.221756 0,0.173439 -0.1177596,0.376318 -0.4371184,0.315519 C 1.8335932,11.921236 0,9.4610849 0,6.5618957 0,2.9375891 2.8659094,0 6.3999763,0"
     id="github-[#142]"
     style="fill:#ffffff;fill-opacity:1;stroke-width:0.639998" />
  <metadata
     id="metadata1">
    <rdf:RDF>
      <cc:Work
         rdf:about="">
        <dc:title>github [#142]</dc:title>
      </cc:Work>
    </rdf:RDF>
  </metadata>
</svg>
