<?xml version="1.0" encoding="UTF-8" standalone="no"?>
<!-- Uploaded to: SVG Repo, www.svgrepo.com, Generator: SVG Repo Mixer Tools -->

<svg
   width="512"
   height="512"
   viewBox="0 0 15.36 15.36"
   fill="none"
   version="1.1"
   id="svg3"
   sodipodi:docname="instagram-logo.svg"
   inkscape:version="1.4.2 (f4327f4, 2025-05-13)"
   xmlns:inkscape="http://www.inkscape.org/namespaces/inkscape"
   xmlns:sodipodi="http://sodipodi.sourceforge.net/DTD/sodipodi-0.dtd"
   xmlns="http://www.w3.org/2000/svg"
   xmlns:svg="http://www.w3.org/2000/svg">
  <defs
     id="defs3" />
  <sodipodi:namedview
     id="namedview3"
     pagecolor="#505050"
     bordercolor="#eeeeee"
     borderopacity="1"
     inkscape:showpageshadow="0"
     inkscape:pageopacity="0"
     inkscape:pagecheckerboard="0"
     inkscape:deskcolor="#505050"
     inkscape:zoom="0.70710678"
     inkscape:cx="248.90159"
     inkscape:cy="354.9676"
     inkscape:window-width="1920"
     inkscape:window-height="1009"
     inkscape:window-x="1432"
     inkscape:window-y="-8"
     inkscape:window-maximized="1"
     inkscape:current-layer="svg3" />
  <path
     fill-rule="evenodd"
     clip-rule="evenodd"
     d="m 7.68,11.869091 c 2.3135651,0 4.189091,-1.8755259 4.189091,-4.189091 0,-2.3135721 -1.8755259,-4.1890909 -4.189091,-4.1890909 -2.3135721,0 -4.1890909,1.8755188 -4.1890909,4.1890909 0,2.3135651 1.8755188,4.189091 4.1890909,4.189091 z m 0,-1.396364 c 1.5423535,0 2.792727,-1.2503735 2.792727,-2.792727 0,-1.5423814 -1.2503735,-2.7927273 -2.792727,-2.7927273 -1.5423814,0 -2.7927273,1.2503459 -2.7927273,2.7927273 0,1.5423535 1.2503459,2.792727 2.7927273,2.792727 z"
     fill="#0F0F0F"
     id="path1"
     style="fill:#ffffff;fill-opacity:1;stroke-width:0.698182" />
  <path
     d="m 11.869091,2.7927273 c -0.385606,0 -0.698182,0.3125899 -0.698182,0.6981818 0,0.3855918 0.312576,0.6981818 0.698182,0.6981818 0.385606,0 0.698182,-0.31259 0.698182,-0.6981818 0,-0.3855919 -0.312576,-0.6981818 -0.698182,-0.6981818 z"
     fill="#0F0F0F"
     id="path2"
     style="fill:#ffffff;fill-opacity:1;stroke-width:0.698182" />
  <path
     fill-rule="evenodd"
     clip-rule="evenodd"
     d="M 0.45658298,2.2872855 C 0,3.1833809 0,4.3564381 0,6.7025455 v 1.954909 C 0,11.003555 0,12.17664 0.45658298,13.072687 0.85820509,13.860934 1.4990522,14.501795 2.2872855,14.903389 3.1833809,15.36 4.3564381,15.36 6.7025455,15.36 h 1.954909 c 2.3461005,0 3.5191855,0 4.4152325,-0.456611 0.788247,-0.401594 1.429108,-1.042455 1.830702,-1.830702 C 15.36,12.17664 15.36,11.003555 15.36,8.6574545 v -1.954909 c 0,-2.3461074 0,-3.5191646 -0.456611,-4.41526 C 14.501795,1.4990522 13.860934,0.85820509 13.072687,0.45658298 12.17664,0 11.003555,0 8.6574545,0 H 6.7025455 C 4.3564381,0 3.1833809,0 2.2872855,0.45658298 1.4990522,0.85820509 0.85820509,1.4990522 0.45658298,2.2872855 Z M 8.6574545,1.3963636 h -1.954909 c -1.1960972,0 -2.0091928,0.00109 -2.6376751,0.052434 C 3.4526767,1.4988148 3.1396119,1.5894737 2.9212207,1.70075 2.3957341,1.9685027 1.9685027,2.3957341 1.70075,2.9212207 1.5894737,3.1396119 1.4988148,3.4526767 1.4487971,4.0648704 1.3974528,4.6933527 1.3963636,5.5064483 1.3963636,6.7025455 v 1.954909 c 0,1.1961251 0.00109,2.0091575 0.052434,2.6376615 0.050018,0.612235 0.1406766,0.9253 0.2519529,1.143691 0.2677527,0.525452 0.6949841,0.952669 1.2204707,1.220422 0.2183912,0.11129 0.531456,0.201984 1.1436497,0.251974 0.6284823,0.05132 1.4415779,0.05243 2.6376751,0.05243 h 1.954909 c 1.1961251,0 2.009158,-0.0011 2.637662,-0.05243 0.612235,-0.04999 0.9253,-0.140684 1.143691,-0.251974 0.525452,-0.267753 0.952669,-0.69497 1.220422,-1.220422 0.11129,-0.218391 0.201984,-0.531456 0.251974,-1.143691 0.05132,-0.628504 0.05243,-1.4415364 0.05243,-2.6376615 v -1.954909 c 0,-1.1960972 -0.0011,-2.0091928 -0.05243,-2.6376751 C 13.861213,3.4526767 13.770519,3.1396119 13.659229,2.9212207 13.391476,2.3957341 12.964259,1.9685027 12.438807,1.70075 12.220416,1.5894737 11.907351,1.4988148 11.295116,1.4487971 10.666612,1.3974528 9.8535796,1.3963636 8.6574545,1.3963636 Z"
     fill="#0F0F0F"
     id="path3"
     style="fill:#ffffff;fill-opacity:1;stroke-width:0.698182" />
</svg>
