<?xml version="1.0" encoding="UTF-8" standalone="no"?>
<svg
   height="512"
   width="512"
   viewBox="0 0 480.00196 479.99946"
   version="1.1"
   id="svg1"
   sodipodi:docname="itchio-logo.svg"
   inkscape:version="1.4.2 (f4327f4, 2025-05-13)"
   xmlns:inkscape="http://www.inkscape.org/namespaces/inkscape"
   xmlns:sodipodi="http://sodipodi.sourceforge.net/DTD/sodipodi-0.dtd"
   xmlns="http://www.w3.org/2000/svg"
   xmlns:svg="http://www.w3.org/2000/svg">
  <defs
     id="defs1" />
  <sodipodi:namedview
     id="namedview1"
     pagecolor="#505050"
     bordercolor="#eeeeee"
     borderopacity="1"
     inkscape:showpageshadow="0"
     inkscape:pageopacity="0"
     inkscape:pagecheckerboard="0"
     inkscape:deskcolor="#505050"
     inkscape:zoom="0.5"
     inkscape:cx="307"
     inkscape:cy="308"
     inkscape:window-width="1920"
     inkscape:window-height="1009"
     inkscape:window-x="1432"
     inkscape:window-y="-8"
     inkscape:window-maximized="1"
     inkscape:current-layer="svg1" />
  <path
     d="M 62.579523,26.767702 C 41.642085,39.19949 0.39124428,86.588953 0,99.016828 v 20.571622 c 0,26.07643 24.374519,48.99552 46.505252,48.99552 26.573311,0 48.713825,-22.02314 48.715781,-48.16217 0,26.13903 21.381497,48.16217 47.956767,48.16217 26.57723,0 47.27209,-22.02314 47.27209,-48.16217 0,26.13903 22.73521,48.16217 49.31047,48.16217 h 0.48124 c 26.57722,0 49.31242,-22.02314 49.31242,-48.16217 0,26.13903 20.69683,48.16217 47.27014,48.16217 26.57527,0 47.95677,-22.02314 47.95677,-48.16217 0,26.13903 22.14442,48.16217 48.71578,48.16217 22.13073,0 46.50525,-22.91518 46.50525,-48.99552 V 99.016828 C 479.61072,86.586997 438.35987,39.195577 417.42635,26.767702 352.35069,24.482836 307.23631,24.087679 239.99902,24.09746 172.76369,24.103329 81.099071,25.15382 62.57561,26.767702 Z M 190.11342,156.30281 a 54.823105,54.823105 0 0 1 -9.35074,12.04054 c -10.0315,9.8085 -23.78178,15.88843 -38.94054,15.88843 a 55.717098,55.717098 0 0 1 -39.0227,-15.89625 c -3.634664,-3.56032 -6.396849,-7.36713 -8.926243,-11.79993 l -0.01174,0.008 c -2.527439,4.44062 -6.048637,8.24547 -9.691121,11.8097 a 55.75231,55.75231 0 0 1 -39.022705,15.88452 c -1.827111,0 -3.728558,-0.5047 -5.266148,-1.03288 -2.136194,22.24615 -3.038012,43.50636 -3.356876,59.00746 l -0.0039,0.088 c -0.03913,7.87184 -0.07825,14.34497 -0.117374,23.33772 0.410807,46.67544 -4.622551,151.28243 20.579449,176.98522 39.054005,9.10621 110.917758,13.2534 183.014298,13.27883 h 0.0117 c 72.09459,-0.0254 143.95834,-4.17262 183.01234,-13.27883 25.202,-25.70475 20.16865,-130.31173 20.57945,-176.98717 -0.043,-8.9908 -0.0783,-15.46393 -0.11737,-23.33773 l -0.006,-0.088 c -0.31691,-15.50501 -1.21873,-36.76326 -3.35492,-59.00941 -1.53759,0.52817 -3.43708,1.03288 -5.26615,1.03288 a 55.75231,55.75231 0 0 1 -39.0227,-15.88452 c -3.64249,-3.56423 -7.16369,-7.36713 -9.69308,-11.80971 l -0.0117,-0.008 c -2.53135,4.4328 -5.29158,8.24156 -8.92624,11.79993 a 55.713186,55.713186 0 0 1 -39.02074,15.8943 c -15.15681,0 -28.90904,-6.08385 -38.94055,-15.89039 a 54.823105,54.823105 0 0 1 -9.35074,-12.04054 54.754637,54.754637 0 0 1 -9.26466,12.04054 55.732748,55.732748 0 0 1 -39.02662,15.89234 c -0.52818,0 -1.05636,-0.0235 -1.58454,-0.0391 h -0.0137 c -0.52818,0.0157 -1.05636,0.0391 -1.59041,0.0391 a 55.732748,55.732748 0 0 1 -39.02662,-15.89039 54.75855,54.75855 0 0 1 -9.26466,-12.04054 z m -40.07515,51.82031 -0.004,0.0196 h 0.0293 c 15.87082,0.0333 29.96931,0 47.43837,19.06533 13.74832,-1.44173 28.11481,-2.16162 42.49304,-2.1401 h 0.0117 c 14.37823,-0.0196 28.74472,0.69837 42.495,2.1401 17.46905,-19.06729 31.56754,-19.03403 47.43837,-19.06533 h 0.0274 l -0.004,-0.0196 c 7.4982,0 37.49294,0 58.39321,58.70033 l 22.4496,80.52786 c 16.6357,59.90732 -5.32679,61.37253 -32.72172,61.42535 -40.62681,-1.51216 -63.1214,-31.01589 -63.1214,-60.51571 -22.48872,3.68552 -48.7236,5.52828 -74.95849,5.53024 h -0.0117 c -26.23685,0 -52.47173,-1.84472 -74.9585,-5.53024 0,29.49982 -22.49654,59.00355 -63.12139,60.51571 -27.394928,-0.0528 -49.355469,-1.51607 -32.719762,-61.42535 l 22.455465,-80.5259 c 20.900477,-58.70034 50.895227,-58.70034 58.393417,-58.70034 z m 89.95684,46.13161 v 0.0117 c -0.0391,0.0391 -42.76887,39.28092 -50.45095,53.23856 l 27.98179,-1.12091 v 24.4019 c 0,1.14244 11.22871,0.67686 22.46916,0.1565 h 0.0117 c 11.23653,0.52036 22.4672,0.98594 22.4672,-0.1565 v -24.4019 l 27.98179,1.12091 c -7.684,-13.9576 -50.45091,-53.23852 -50.45091,-53.23852 v -0.0117 l -0.006,0.004 z"
     color="#000000"
     id="path1"
     style="fill:#ffffff;fill-opacity:1;stroke-width:1.95622" />
</svg>
