<?xml version="1.0" encoding="UTF-8" standalone="no"?>
<!-- Created with Inkscape (http://www.inkscape.org/) -->

<svg
   width="1080"
   height="1080"
   viewBox="0 0 1080 1080"
   version="1.1"
   id="svg1"
   inkscape:version="1.4.2 (f4327f4, 2025-05-13)"
   sodipodi:docname="LO.svg"
   xmlns:inkscape="http://www.inkscape.org/namespaces/inkscape"
   xmlns:sodipodi="http://sodipodi.sourceforge.net/DTD/sodipodi-0.dtd"
   xmlns="http://www.w3.org/2000/svg"
   xmlns:svg="http://www.w3.org/2000/svg">
  <sodipodi:namedview
     id="namedview1"
     pagecolor="#ffffff"
     bordercolor="#000000"
     borderopacity="0.25"
     inkscape:showpageshadow="2"
     inkscape:pageopacity="0.0"
     inkscape:pagecheckerboard="0"
     inkscape:deskcolor="#d1d1d1"
     inkscape:document-units="px"
     inkscape:zoom="0.37268519"
     inkscape:cx="446.75776"
     inkscape:cy="634.58385"
     inkscape:window-width="1920"
     inkscape:window-height="1001"
     inkscape:window-x="-9"
     inkscape:window-y="-9"
     inkscape:window-maximized="1"
     inkscape:current-layer="layer1" />
  <defs
     id="defs1" />
  <g
     inkscape:label="Camada 1"
     inkscape:groupmode="layer"
     id="layer1">
    <rect
       style="display:inline;fill:#7b277b;fill-opacity:1;stroke:none;stroke-width:36.498;stroke-dasharray:none;stroke-opacity:1"
       id="rect3"
       width="1538.0414"
       height="1337.6025"
       x="-229.02069"
       y="-111.26892"
       ry="5.8581719" />
    <path
       id="path5"
       style="display:inline;fill:#310031;fill-opacity:1;stroke:none;stroke-width:9.52256"
       inkscape:label="cabe"
       d="m 279.40017,117.78473 -6.49092,23.64736 -16.33605,11.39291 c 0,0 -30.64207,104.9906 -28.25715,158.43959 1.09163,24.45203 12.63435,47.30908 19.31876,70.86313 3.36312,11.85129 3.67111,25.32817 7.50712,36.97272 -6.48336,14.70193 -9.9935,30.12309 -10.11263,46.01115 -0.03,5.13523 0.30529,10.22091 1.01531,15.24748 -2.85633,-0.91624 -5.73196,-1.77314 -8.59876,-2.63857 -10.37191,-2.60746 -20.70169,-5.48047 -31.17169,-7.68889 -0.92762,-0.16985 -5.11008,-0.99548 -6.17171,-0.97857 -4.83488,0.0599 -9.12561,1.83547 -13.76138,3.20284 -10.18641,3.00285 -16.97797,5.11907 -27.39231,8.31023 -25.44691,6.99353 -12.60493,3.63917 -38.52782,10.05405 l 8.09047,5.58486 c 26.12962,-6.42956 13.06937,-3.21183 39.18,-9.65582 5.23984,-1.43666 10.47458,-2.89599 15.72151,-4.30803 8.08119,-2.17474 18.60246,-5.69178 27.15901,-5.36172 1.04636,0.03 5.04162,0.78059 5.98307,0.94745 10.18155,2.09557 20.26845,4.69172 30.29616,7.41456 2.05322,10.81113 5.80177,21.33464 11.07355,31.48738 -3.78447,-0.60234 -7.56759,-1.22452 -11.34816,-1.86652 -5.72118,-0.97005 -11.41064,-2.13516 -17.14934,-2.99663 -5.058,-0.75791 -10.17706,-2.64988 -15.23057,-1.86084 -8.88183,1.38577 -17.11709,5.49603 -25.67596,8.2452 -50.41704,21.16838 -24.71385,10.23251 -77.09328,32.8502 l 4.47968,2.98644 c 53.32029,-22.32219 26.77806,-12.00932 79.58168,-31.05834 9.11767,-2.19741 18.03625,-5.50231 27.35132,-6.5908 4.95025,-0.5799 9.92706,0.9446 14.85972,1.65724 5.72464,0.82578 11.40168,1.957 17.09794,2.95898 2.03054,0.35618 4.06221,0.71534 6.09307,1.07473 0.64499,1.11424 1.30938,2.22001 1.99096,3.32264 -3.85944,2.28227 -7.72539,4.54358 -11.53029,6.87224 -10.57581,6.47228 -24.73592,15.34475 -35.13985,21.83829 -21.96019,13.90616 -11.46407,7.11399 -31.51844,20.32808 l 8.7636,5.59847 c 19.41042,-13.63776 9.17252,-6.68696 30.76988,-20.75032 6.21181,-3.75372 12.37335,-7.5934 18.63605,-11.26226 8.44012,-4.94488 17.03402,-9.59642 25.66556,-14.17651 47.81827,66.48215 162.74118,113.21867 290.08741,113.03602 121.75605,-0.16986 221.45236,-43.19329 267.38777,-105.18926 3.7344,2.06452 7.44986,4.17057 11.13547,6.32975 6.26274,3.66886 12.42392,7.50854 18.63582,11.26226 21.5971,14.06336 11.35948,7.11256 30.76981,20.75032 l 8.76362,-5.59847 c -20.05399,-13.21409 -9.55832,-6.42192 -31.51843,-20.32808 -9.5278,-5.94686 -22.20308,-13.88978 -32.39383,-20.15621 3.32304,-5.09107 6.29134,-10.29528 8.89061,-15.60493 0.67044,-0.11303 1.34337,-0.19829 2.01359,-0.30529 4.93275,-0.71234 9.90988,-2.237 14.85977,-1.65724 9.31514,1.08879 18.23366,4.39422 27.35133,6.59051 52.80358,19.04924 26.26136,8.73644 79.58198,31.05833 l 4.4794,-2.98644 c -52.37919,-22.61739 -26.676,-11.6816 -77.09301,-32.84989 -8.5589,-2.74888 -16.7945,-6.85891 -25.67637,-8.24521 -5.05338,-0.78904 -10.17247,1.10292 -15.2304,1.86084 -2.63296,0.39583 -5.25515,0.85406 -7.87416,1.32636 4.64497,-10.59362 7.83422,-21.57191 9.43951,-32.84316 3.75812,-0.89648 7.52827,-1.74493 11.31023,-2.52259 0.94166,-0.16986 4.93264,-0.90503 5.97961,-0.94745 8.55663,-0.33074 19.07817,3.18698 27.15909,5.3615 5.24687,1.41114 10.4816,2.87099 15.72143,4.30794 26.11097,6.44401 13.05045,3.22627 39.17997,9.65612 l 8.0905,-5.58484 c -25.9228,-6.4152 -13.0808,-3.06053 -38.5275,-10.05435 -10.41464,-3.19117 -17.20598,-5.3071 -27.39241,-8.31023 -4.63589,-1.36595 -8.92669,-3.13011 -13.76129,-3.20277 -1.06058,-0.015 -5.24551,0.80879 -6.17196,0.97849 -7.03112,1.48477 -13.9963,3.26526 -20.95627,5.06646 0.35315,-3.59388 0.54323,-7.21433 0.57172,-10.8606 0.0601,-8.57271 -0.86268,-17.0094 -2.71218,-25.26419 11.37344,-13.51025 10.31081,-33.5287 15.31994,-50.3087 7.03701,-23.57358 18.93269,-46.45524 20.38977,-70.91124 3.18494,-53.45685 -25.89572,-158.36386 -25.89572,-158.36386 l -16.1539,-11.3552 -6.14121,-23.6199 -105.62155,74.18249 -80.35437,78.09557 -12.41578,13.55208 c -28.18756,-5.1448 -58.14243,-7.89173 -89.20361,-7.84706 -24.5077,0.03 -48.35253,1.80996 -71.20636,5.12161 L 463.09969,269.5316 383.90567,191.67615 Z m 50.91277,292.37731 21.29955,9.92371 c 0,0 16.56569,5.71579 24.80753,8.68099 45.52052,16.37817 108.83972,28.33752 136.09996,50.31888 13.11682,10.577 13.64112,44.52818 13.64112,44.52818 l -0.0599,0.03 -12.65282,15.90303 -9.9751,7.2186 c 0,0 -14.23053,2.03054 -30.77355,6.10017 -41.84148,10.29439 -79.60121,-22.1774 -110.48902,-52.54344 -8.49722,-8.35327 -11.98366,-30.9348 -11.98366,-30.9348 l -18.35411,-57.57541 z m 449.29268,0 -1.56955,1.65441 -18.35417,57.57541 c 0,0 -3.48645,22.58153 -11.98328,30.93478 -30.88805,30.36605 -68.64756,62.83784 -110.48932,52.54316 -16.5428,-4.07015 -30.77333,-6.09958 -30.77333,-6.09958 l -9.97539,-7.21889 -12.64909,-15.90334 -0.0598,-0.03 c 0,0 0.52602,-33.95117 13.6412,-44.5281 27.25994,-21.98114 90.57953,-33.94048 136.10006,-50.31865 8.24172,-2.9655 24.80744,-8.681 24.80744,-8.681 z M 581.1554,684.61055 c -9.34478,-0.0599 -18.85783,-0.22597 -27.97663,1.80151 -10.03033,2.24545 -22.07587,3.45307 -28.6788,11.33066 -44.70552,53.33443 -92.05007,156.63283 -41.61723,204.58744 13.59196,12.92422 41.5974,-0.36739 54.50329,-13.97746 14.0368,-14.80176 -2.26528,-45.45879 12.0382,-60.00217 6.10437,-6.20673 17.64147,-1.85231 25.51785,-5.56075 8.78171,-4.13413 16.71505,-10.50173 22.90621,-17.97691 9.13609,-11.03031 15.1256,-24.60072 19.76847,-38.15002 2.47732,-7.2302 3.77855,-14.91549 4.15328,-22.5487 0.41828,-8.53426 0.16986,-17.31963 -2.15214,-25.54217 -2.02209,-7.16382 -5.29356,-14.21331 -10.04051,-19.94721 -4.59902,-5.55486 -10.43274,-10.59109 -17.16998,-13.16404 -3.51389,-1.34051 -7.49074,-0.83146 -11.25201,-0.8513 z m -129.43396,1.23591 c -12.34109,-14.27977 -42.51401,-8.75403 -56.48377,3.93726 -51.6076,46.88301 -82.29689,155.59882 -34.45004,206.3142 20.1836,21.39323 69.87177,13.92456 87.7276,-9.44654 7.18216,-9.40052 3.5549,-27.56202 -5.60856,-35.0437 -7.14318,-5.8323 -21.70429,8.23817 -27.63985,1.18217 -36.66099,-43.59174 73.69851,-123.84686 36.45462,-166.94198 z m 378.51869,4.65782 c -13.80861,-11.80721 -39.55953,-1.98251 -53.67919,9.44999 -27.71901,22.44573 -40.05895,99.22002 -40.05895,99.22002 0,0 37.01655,-74.59499 14.4206,-99.22002 -15.19238,-16.55634 -49.58323,-9.88921 -67.29657,3.93718 -54.20893,42.31409 -103.23647,142.06463 -61.69114,196.86461 10.49186,13.83911 38.44019,9.17902 52.07653,-1.57525 27.97831,-22.06681 28.04083,-103.15698 28.04083,-103.15698 0,0 3.44719,9.38495 2.35018,28.64011 -1.54413,27.11823 -7.5773,67.78809 -5.55747,76.88197 2.31897,10.44097 23.43298,4.76386 32.04703,-1.57523 28.14377,-20.71074 36.05299,-98.43383 36.05299,-98.43383 l -8.01192,100.79525 c 0,0 -10.66805,33.46961 -23.58856,42.22841 -57.27821,38.829 -133.33977,-10.32813 -201.46779,1.7986 -13.11945,2.33599 -29.56406,23.90228 -21.63021,35.13671 61.72563,87.40098 245.85372,15.41128 313.89292,-67.16989 47.44923,-57.59007 60.81334,-175.32717 4.09958,-223.82082 z m -260.30621,37.16189 c 6.87755,-1.48478 10.45107,10.25539 12.54978,16.97064 1.04922,3.3555 -0.32548,10.54162 -0.32548,10.54162 0.0845,-0.0599 -3.40189,12.28849 -6.73142,17.13235 -4.98811,7.6689 -11.22799,23.88215 -19.27744,19.53485 -19.25322,-10.39735 -7.60358,-59.56324 13.78508,-64.17946 z"
       sodipodi:nodetypes="cccsscscccssccccsscccsssccccsssccsccccscscsccccccssccccssccccsccccssccccssccccccsccccccsscccccsccccccsscccccsccaaaaaaaaaaaaaaaaaaaaaaacaaaacssaccssaaaaacaaaa" />
  </g>
</svg>
