<?xml version="1.0" encoding="UTF-8" standalone="no"?>
<!-- Created with Inkscape (http://www.inkscape.org/) -->

<svg
   width="512"
   height="512"
   viewBox="0 0 512 512"
   version="1.1"
   id="svg1"
   inkscape:version="1.4.2 (f4327f4, 2025-05-13)"
   sodipodi:docname="logo_lpm_placeholder.svg"
   xmlns:inkscape="http://www.inkscape.org/namespaces/inkscape"
   xmlns:sodipodi="http://sodipodi.sourceforge.net/DTD/sodipodi-0.dtd"
   xmlns="http://www.w3.org/2000/svg"
   xmlns:svg="http://www.w3.org/2000/svg">
  <sodipodi:namedview
     id="namedview1"
     pagecolor="#505050"
     bordercolor="#eeeeee"
     borderopacity="1"
     inkscape:showpageshadow="0"
     inkscape:pageopacity="0"
     inkscape:pagecheckerboard="0"
     inkscape:deskcolor="#505050"
     inkscape:document-units="px"
     inkscape:zoom="0.79101563"
     inkscape:cx="323.00247"
     inkscape:cy="312.25679"
     inkscape:window-width="1920"
     inkscape:window-height="1009"
     inkscape:window-x="1432"
     inkscape:window-y="-8"
     inkscape:window-maximized="1"
     inkscape:current-layer="layer1" />
  <defs
     id="defs1">
    <inkscape:path-effect
       effect="spiro"
       id="path-effect36"
       is_visible="true"
       lpeversion="1" />
    <inkscape:path-effect
       effect="spiro"
       id="path-effect34"
       is_visible="true"
       lpeversion="1" />
    <inkscape:path-effect
       effect="spiro"
       id="path-effect32"
       is_visible="true"
       lpeversion="1" />
    <inkscape:path-effect
       effect="spiro"
       id="path-effect30"
       is_visible="true"
       lpeversion="1" />
    <inkscape:path-effect
       effect="spiro"
       id="path-effect28"
       is_visible="true"
       lpeversion="1" />
    <inkscape:path-effect
       effect="spiro"
       id="path-effect26"
       is_visible="true"
       lpeversion="1" />
    <inkscape:path-effect
       effect="spiro"
       id="path-effect23"
       is_visible="true"
       lpeversion="1" />
    <inkscape:path-effect
       effect="spiro"
       id="path-effect21"
       is_visible="true"
       lpeversion="1" />
    <inkscape:path-effect
       effect="spiro"
       id="path-effect19"
       is_visible="true"
       lpeversion="1" />
    <inkscape:path-effect
       effect="spiro"
       id="path-effect15"
       is_visible="true"
       lpeversion="1" />
    <inkscape:path-effect
       effect="spiro"
       id="path-effect12"
       is_visible="true"
       lpeversion="1" />
    <inkscape:path-effect
       effect="spiro"
       id="path-effect11"
       is_visible="true"
       lpeversion="1" />
    <inkscape:path-effect
       effect="spiro"
       id="path-effect7"
       is_visible="true"
       lpeversion="1" />
    <filter
       inkscape:collect="always"
       style="color-interpolation-filters:sRGB"
       id="filter6"
       x="-0.33526756"
       y="-0.45393141"
       width="1.6705351"
       height="1.9078628">
      <feGaussianBlur
         inkscape:collect="always"
         stdDeviation="6.026535"
         id="feGaussianBlur6" />
    </filter>
    <filter
       inkscape:collect="always"
       style="color-interpolation-filters:sRGB"
       id="filter7"
       x="-0.33526761"
       y="-0.45393142"
       width="1.6705352"
       height="1.9078628">
      <feBlend
         mode="normal"
         id="feBlend7" />
      <feGaussianBlur
         inkscape:collect="always"
         stdDeviation="6.026535"
         id="feGaussianBlur7" />
    </filter>
    <filter
       inkscape:collect="always"
       style="color-interpolation-filters:sRGB"
       id="filter36"
       x="-0.10739227"
       y="-0.093015742"
       width="1.2147845"
       height="1.1860315">
      <feBlend
         mode="normal"
         id="feBlend36" />
      <feGaussianBlur
         inkscape:collect="always"
         stdDeviation="16.400855"
         id="feGaussianBlur36" />
    </filter>
  </defs>
  <g
     inkscape:label="Camada 1"
     inkscape:groupmode="layer"
     id="layer1">
    <path
       id="path15-6-8"
       style="display:inline;mix-blend-mode:normal;fill:#8246c3;fill-opacity:1;stroke-width:0.957917;filter:url(#filter36)"
       inkscape:label="logo_glow"
       d="m 245.24111,288.43265 c -5.60493,0.26591 -12.24053,2.0849 -12.24053,2.0849 l -12.82217,3.72485 c 0,0 -23.62749,85.57561 -18.4102,90.50365 5.2173,4.92799 19.3709,-3.82912 22.48441,-6.9964 3.11354,-3.16728 6.95155,-25.73012 6.95155,-25.73012 l 11.28848,-2.45997 c 0,0 7.34108,-4.5538 10.1329,-7.95237 3.96905,-4.8317 6.68613,-10.8736 8.74499,-16.87652 1.10233,-3.21432 1.66784,-6.6312 1.83739,-9.97497 0.19396,-3.82813 0.0369,-7.74155 -0.95209,-11.29908 -0.90302,-3.25861 -2.41038,-6.34358 -4.4416,-8.82397 -2.0626,-2.51876 -4.55036,-4.96576 -7.59549,-5.82341 -1.35534,-0.38169 -3.10933,-0.46522 -4.97764,-0.37661 z m -10.55504,15.40965 c 2.49243,0.52898 4.65279,0.3993 7.4391,3.41205 2.78633,3.01273 4.94737,5.7897 3.40142,13.98228 -0.4659,2.46904 -3.47163,8.63038 -7.30699,10.25285 -3.83533,1.62249 -9.13068,2.02113 -9.13068,2.02113 l 2.79859,-14.83264 z m -62.38566,-10.58866 c -2.7051,4.01628 -18.41546,87.38391 -14.56229,91.53865 3.85318,4.15471 36.08411,-1.89054 40.62918,-3.8927 4.78887,-2.10967 2.55281,-14.07166 -2.48097,-15.50159 -4.02247,-1.14266 -18.79103,0.77715 -18.79103,0.77715 0,0 16.31642,-65.7847 15.1773,-71.41082 -1.08693,-5.36848 -16.69513,-6.37617 -19.97219,-1.51069 z m 173.76553,-2.87385 c -0.82305,-5.26299 -22.1052,1.31538 -23.74619,4.18044 -2.01535,3.51862 -17.7208,43.89199 -17.7208,43.89199 0,0 -0.49694,-38.29601 -1.81953,-41.04615 -3.75467,-7.80727 -19.29723,-6.36092 -21.57134,-1.10414 -2.13018,4.92412 -26.63922,54.90101 -24.17441,76.5168 1.50909,13.23428 14.42053,6.1481 19.6493,-4.89714 6.69196,-14.13604 12.67638,-30.86335 12.67638,-30.86335 0,0 -1.93701,33.88523 -0.46922,39.76778 2.42423,9.71593 10.97812,12.29202 15.66629,2.69228 3.35047,-6.8605 13.51002,-40.02137 13.51002,-40.02137 -2.15213,37.68594 -2.04168,38.76175 -9.42071,64.46305 -2.19929,7.6492 -4.34801,14.93836 -7.11566,21.59597 -2.12962,5.12293 -4.57736,9.66481 -7.54235,13.18358 -2.91573,3.46029 -6.49721,6.00099 -9.95674,7.04123 -3.26017,0.98034 -7.12407,0.78354 -10.26805,-0.52234 -3.14398,-1.30591 -6.00911,-3.903 -7.61526,-6.9046 -1.60622,-3.00168 -2.17934,-6.8291 -1.52153,-10.16936 0.65776,-3.34018 2.63873,-6.65847 5.2631,-8.82698 4.50455,-3.72096 5.13954,-10.38906 1.41828,-14.89336 -3.72139,-4.50406 -10.38952,-5.1384 -14.89339,-1.41673 -6.49192,5.36427 -10.91859,12.78801 -12.54576,21.0508 -1.6272,8.26277 -0.34558,16.81145 3.62768,24.23671 3.97326,7.4252 10.37479,13.23612 18.15205,16.4665 7.77724,3.2304 16.40728,3.66417 24.47201,1.23908 8.3421,-2.50844 15.02195,-7.70112 20.04713,-13.66489 4.97596,-5.9053 8.2973,-12.44209 10.89823,-18.69871 3.364,-8.09216 5.69374,-16.16684 7.9083,-23.86918 1.28543,-9.91455 8.32396,-19.40349 8.47927,-32.40464 0,0 10.42869,-75.41193 8.6129,-87.02327 z M 133.21394,44.411897 c 0,0 -2.05783,8.829805 -3.34571,10.14453 -1.28787,1.314725 -5.99837,8.020211 -8.01758,11.517578 -2.0192,3.497369 -12.29133,40.283495 -11.23632,63.927735 0.48262,10.81688 5.5899,20.92798 8.54687,31.34765 1.48778,5.24265 1.62347,11.20226 3.32031,16.35352 -2.86808,6.50362 -4.42006,13.3251 -4.47265,20.35351 -0.0159,2.12165 0.11512,4.22473 0.38867,6.30469 -5.8784,-2.42783 -11.97692,-4.60711 -18.402342,-5.80273 -8.363707,-1.55631 -17.038482,-1.3676 -25.326176,0.55273 a 2.4999998,2.4999998 0 0 0 -1.867187,3 2.4999998,2.4999998 0 0 0 2.998046,1.87305 c 7.61002,-1.76333 15.597546,-1.94274 23.277347,-0.51367 6.393512,1.1897 12.639602,3.49472 18.826172,6.10351 0.55717,0.23495 1.11267,0.47161 1.66797,0.71094 0.90142,3.39576 2.1814,6.72143 3.8125,9.96289 -7.70562,0.35229 -14.90955,3.00608 -21.71875,5.48438 -7.574325,2.75676 -15.154075,5.49433 -22.742191,8.21288 a 2.4999998,2.4999998 0 0 0 -1.509766,3.19728 2.4999998,2.4999998 0 0 0 3.197265,1.50976 c 7.596023,-2.72139 15.18341,-5.46106 22.765622,-8.2207 7.36207,-2.67951 14.63938,-5.25951 21.88672,-5.22071 0.31464,0.002 0.62879,0.008 0.94336,0.0195 1.54051,2.44103 3.28343,4.82737 5.21485,7.15234 -6.49807,2.96386 -12.82056,6.30921 -18.92578,10.01562 -7.61913,4.6255 -14.897492,9.81143 -21.75782,15.50195 a 2.4999998,2.4999998 0 0 0 -0.330076,3.52149 2.4999998,2.4999998 0 0 0 3.521484,0.32617 c 6.671612,-5.534 13.748662,-10.57595 21.158202,-15.07421 6.37776,-3.87187 13.00277,-7.33949 19.81836,-10.37697 23.95924,25.19476 70.62247,42.26685 121.82616,42.19337 52.15593,-0.0749 95.16136,-17.91934 116.28322,-43.95116 8.25666,3.43405 16.2548,7.49438 23.89844,12.13476 7.40954,4.49826 14.48464,9.54021 21.15624,15.07421 a 2.4999998,2.4999998 0 0 0 3.52344,-0.32617 2.4999998,2.4999998 0 0 0 -0.33008,-3.52149 c -6.86031,-5.69052 -14.13869,-10.87645 -21.75781,-15.50195 -7.49212,-4.54838 -15.31232,-8.55362 -23.38085,-11.97657 0.94595,-1.35008 1.83366,-2.71967 2.66406,-4.10741 2.58755,-0.714 5.2707,-1.08912 7.94922,-1.10352 7.24733,-0.0388 14.52464,2.5412 21.8867,5.22071 7.58223,2.75964 15.16962,5.49931 22.76565,8.2207 a 2.4999998,2.4999998 0 0 0 3.19726,-1.50976 2.4999998,2.4999998 0 0 0 -1.51173,-3.19728 c -7.58811,-2.71855 -15.16787,-5.45612 -22.74218,-8.21288 -7.36765,-2.68154 -15.19563,-5.56862 -23.62305,-5.52344 -1.631,0.009 -3.2597,0.13193 -4.87109,0.36523 1.01978,-2.18867 1.89773,-4.41632 2.6289,-6.67773 3.17593,-1.51429 6.38689,-2.95516 9.62891,-4.32227 6.18656,-2.60879 12.43265,-4.91381 18.82617,-6.10351 7.67981,-1.42907 15.66732,-1.24966 23.27735,0.51367 a 2.4999998,2.4999998 0 0 0 2.99804,-1.87305 2.4999998,2.4999998 0 0 0 -1.86914,-3 c -8.28769,-1.92033 -16.96053,-2.10904 -25.32421,-0.55273 -6.95432,1.29404 -13.52603,3.73967 -19.84962,6.40625 -2.03098,0.85644 -4.05035,1.74292 -6.05665,2.65625 0.64311,-3.26059 0.98457,-6.58108 1.00978,-9.94922 0.0283,-3.79231 -0.38139,-7.52604 -1.19922,-11.17773 5.03123,-5.97659 4.55957,-14.83101 6.77539,-22.25391 3.11301,-10.42839 8.37692,-20.55064 9.02149,-31.36914 1.40894,-23.64778 -11.45509,-70.054688 -11.45509,-70.054688 l -7.14647,-5.025391 -2.7168,-10.447264 -46.72462,32.816406 -35.54492,34.544917 -5.49413,5.9961 c -12.46939,-2.27591 -25.71838,-3.49043 -39.45899,-3.47071 -10.84141,0.0155 -21.39201,0.8002 -31.50197,2.26563 l -7.18553,-7.95703 -35.03321,-34.441408 z" />
    <g
       id="g25"
       inkscape:label="logo"
       style="display:inline"
       transform="translate(-3.795739,-3.5213201)">
      <g
         id="g22"
         transform="matrix(2.0082659,0,0,2.0082659,-34.032456,13.068482)"
         style="stroke:none">
        <path
           id="path2"
           style="fill:#000000;fill-opacity:1;stroke:none;stroke-width:2.09758"
           inkscape:label="cabe"
           d="m 85.169127,17.360423 c 0,0 -1.024865,4.396633 -1.666151,5.05129 -0.641287,0.654657 -2.986387,3.994394 -3.991835,5.73588 -1.005448,1.741487 -6.120183,20.05808 -5.594853,31.83154 0.24032,5.386181 2.78345,10.421107 4.25585,15.609502 0.74083,2.610532 0.80808,5.578694 1.65301,8.143722 -1.42814,3.238425 -2.20133,6.635114 -2.22752,10.134858 -0.16596,22.174905 32.074082,40.104505 69.075822,40.051405 37.00175,-0.0531 64.75464,-18.06878 64.92062,-40.243685 0.0141,-1.88835 -0.19033,-3.746714 -0.59756,-5.565047 2.50526,-2.975995 2.27101,-7.385839 3.37436,-11.082016 1.5501,-5.192732 4.1708,-10.23297 4.49176,-15.619956 0.70157,-11.775221 -5.70421,-34.883211 -5.70421,-34.883211 l -3.55873,-2.501546 -1.35217,-5.202563 -23.26629,16.34027 -17.69963,17.202157 -2.73522,2.985427 c -6.20903,-1.133267 -12.80691,-1.738167 -19.64894,-1.728348 -5.39839,0.0077 -10.65134,0.398003 -15.68551,1.127699 l -3.57812,-3.961803 -17.44468,-17.149617 z"
           sodipodi:nodetypes="czzsscssscssccccccccccc" />
        <path
           style="display:inline;fill:#5d496c;fill-opacity:1;stroke:none;stroke-width:1.28855;stroke-dasharray:none;stroke-opacity:1"
           d="m 96.729516,82.128045 4.042624,12.682104 c 0,0 0.76793,4.974495 2.63962,6.814531 6.80386,6.68883 15.12176,13.8413 24.33843,11.57366 3.64396,-0.89656 6.77861,-1.34316 6.77861,-1.34316 l 2.19689,-1.59003 2.78692,-3.50371 0.0111,-0.007 c 0,0 -0.11538,-7.478606 -3.00472,-9.808431 -6.00474,-4.841945 -19.95247,-7.476725 -29.97951,-11.084424 -1.81546,-0.653203 -5.46433,-1.912116 -5.46433,-1.912116 l -4.692154,-2.185763"
           id="path3"
           sodipodi:nodetypes="ccssccccsacc"
           inkscape:label="linha" />
        <path
           style="display:inline;fill:#5d496c;fill-opacity:1;stroke:none;stroke-width:1.28855;stroke-dasharray:none;stroke-opacity:1"
           d="m 195.00612,82.128044 -4.04262,12.682105 c 0,0 -0.76793,4.974495 -2.63962,6.814531 -6.80386,6.68883 -15.12177,13.8413 -24.33844,11.57366 -3.64396,-0.89656 -6.77861,-1.34316 -6.77861,-1.34316 l -2.19689,-1.59003 -2.78692,-3.50371 -0.0111,-0.007 c 0,0 0.11538,-7.478606 3.00472,-9.808431 6.00474,-4.841946 19.95247,-7.476726 29.97952,-11.084425 1.81546,-0.653203 5.46433,-1.912116 5.46433,-1.912116 l 4.69215,-2.185763"
           id="path4"
           sodipodi:nodetypes="ccssccccsacc"
           inkscape:label="linha" />
        <path
           style="display:inline;mix-blend-mode:normal;fill:#933ccf;fill-opacity:1;stroke:none;stroke-width:1.28855;stroke-dasharray:none;stroke-opacity:1;filter:url(#filter7)"
           d="m 96.729516,82.128045 4.042624,12.682104 c 0,0 0.76793,4.974495 2.63962,6.814531 6.80386,6.68883 15.12176,13.8413 24.33843,11.57366 3.64396,-0.89656 6.77861,-1.34316 6.77861,-1.34316 l 2.19689,-1.59003 2.78692,-3.50371 0.0111,-0.007 c 0,0 -0.11538,-7.478606 -3.00472,-9.808431 -6.00474,-4.841945 -19.95247,-7.476725 -29.97951,-11.084424 -1.81546,-0.653203 -5.46433,-1.912116 -5.46433,-1.912116 l -4.692154,-2.185763"
           id="path7"
           sodipodi:nodetypes="ccssccccsacc"
           inkscape:label="linhaglow" />
        <path
           style="display:inline;mix-blend-mode:normal;fill:#933ccf;fill-opacity:1;stroke:none;stroke-width:1.28855;stroke-dasharray:none;stroke-opacity:1;filter:url(#filter6)"
           d="m 195.00612,82.128044 -4.04262,12.682105 c 0,0 -0.76793,4.974495 -2.63962,6.814531 -6.80386,6.68883 -15.12177,13.8413 -24.33844,11.57366 -3.64396,-0.89656 -6.77861,-1.34316 -6.77861,-1.34316 l -2.19689,-1.59003 -2.78692,-3.50371 -0.0111,-0.007 c 0,0 0.11538,-7.478606 3.00472,-9.808431 6.00474,-4.841946 19.95247,-7.476726 29.97952,-11.084425 1.81546,-0.653203 5.46433,-1.912116 5.46433,-1.912116 l 4.69215,-2.185763"
           id="path8"
           sodipodi:nodetypes="ccssccccsacc"
           inkscape:label="linhaglow" />
        <path
           style="fill:none;stroke:#000000;stroke-width:2.48971;stroke-linecap:round;stroke-linejoin:round;stroke-dasharray:none;stroke-dashoffset:1.9764;stroke-opacity:1"
           d="m 27.490266,116.24459 c -3.958314,-0.41109 -7.937857,-0.61769 -11.91746,-0.61872 -3.380266,-8.7e-4 -6.7808097,0.14905 -10.083373,0.86966 -3.9695375,0.86614 -7.7564347,2.56027 -11.0477639,4.94241"
           id="path9"
           inkscape:path-effect="#path-effect26"
           inkscape:original-d="M 27.490266,116.24459 C 25.968982,115.3528 -1.1198895e14,3.7953688e14 15.572806,115.62587 c 1.301452,-4.41069 -5.8867255,-0.59917 -10.083373,0.86966 -4.1966469,1.46883 -7.7429042,3.78833 -11.0477639,4.94241"
           transform="rotate(22.849796,89.28585,261.56824)"
           sodipodi:nodetypes="cssc" />
        <path
           style="fill:none;stroke:#000000;stroke-width:2.48971;stroke-linecap:round;stroke-linejoin:round;stroke-dasharray:none;stroke-dashoffset:1.9764;stroke-opacity:1"
           d="m 28.119763,127.73291 c -2.318768,-1.22077 -4.933514,-1.87446 -7.553965,-1.88849 -3.90256,-0.0209 -7.663678,1.34061 -11.3309474,2.67536 -3.7735378,1.37342 -7.5505362,2.73734 -11.3309473,4.09173"
           id="path10"
           inkscape:path-effect="#path-effect28"
           inkscape:original-d="m 28.119763,127.73291 c -2.72782,-0.6295 -5.140893,-1.259 -7.553965,-1.88849 -2.413072,-0.6295 -7.553965,1.67865 -11.3309474,2.67536 -3.7769824,0.9967 -7.5539648,2.83274 -11.3309473,4.09173"
           transform="translate(60.651438,-19.702005)" />
        <path
           style="fill:none;stroke:#000000;stroke-width:2.48971;stroke-linecap:round;stroke-linejoin:round;stroke-dasharray:none;stroke-dashoffset:1.9764;stroke-opacity:1"
           d="m 30.9525,133.08363 c -4.597599,1.83398 -9.042517,4.05055 -13.273722,6.61927 -3.741703,2.27155 -7.316292,4.8183 -10.6853527,7.61288"
           id="path19"
           inkscape:path-effect="#path-effect30"
           inkscape:original-d="m 30.9525,133.08363 c -9.881109,5.42085 -16.042953,10.82155 -13.273722,6.61927 2.235094,-3.39173 -7.433023,4.48552 -10.6853527,7.61288"
           transform="translate(57.818701,-22.692116)"
           sodipodi:nodetypes="csc" />
        <path
           style="fill:none;stroke:#000000;stroke-width:2.48971;stroke-linecap:round;stroke-linejoin:round;stroke-dasharray:none;stroke-dashoffset:1.9764;stroke-opacity:1"
           d="m 27.490266,116.24459 c -3.958314,-0.41109 -7.937857,-0.61769 -11.91746,-0.61872 -3.380266,-8.7e-4 -6.7808097,0.14905 -10.083373,0.86966 -3.9695375,0.86614 -7.7564347,2.56027 -11.0477639,4.94241"
           id="path20"
           inkscape:path-effect="#path-effect32"
           inkscape:original-d="M 27.490266,116.24459 C 25.968982,115.3528 -1.1198895e14,3.7953688e14 15.572806,115.62587 c 1.301452,-4.41069 -5.8867255,-0.59917 -10.083373,0.86966 -4.1966469,1.46883 -7.7429042,3.78833 -11.0477639,4.94241"
           transform="matrix(-0.92152601,0.38831664,0.38831664,0.92152601,184.0409,-14.144878)"
           sodipodi:nodetypes="cssc" />
        <path
           style="display:inline;fill:none;stroke:#000000;stroke-width:2.48971;stroke-linecap:round;stroke-linejoin:round;stroke-dasharray:none;stroke-dashoffset:1.9764;stroke-opacity:1"
           d="m 28.119763,127.73291 c -2.318768,-1.22077 -4.933514,-1.87446 -7.553965,-1.88849 -3.90256,-0.0209 -7.663678,1.34061 -11.3309474,2.67536 -3.7735378,1.37342 -7.5505362,2.73734 -11.3309473,4.09173"
           id="path21"
           inkscape:path-effect="#path-effect34"
           inkscape:original-d="m 28.119763,127.73291 c -2.72782,-0.6295 -5.140893,-1.259 -7.553965,-1.88849 -2.413072,-0.6295 -7.553965,1.67865 -11.3309474,2.67536 -3.7769824,0.9967 -7.5539648,2.83274 -11.3309473,4.09173"
           transform="matrix(-1,0,0,1,231.96738,-19.702005)" />
        <path
           style="fill:none;stroke:#000000;stroke-width:2.48971;stroke-linecap:round;stroke-linejoin:round;stroke-dasharray:none;stroke-dashoffset:1.9764;stroke-opacity:1"
           d="m 30.9525,133.08363 c -4.597599,1.83398 -9.042517,4.05055 -13.273722,6.61927 -3.741703,2.27155 -7.316292,4.8183 -10.6853527,7.61288"
           id="path22"
           inkscape:path-effect="#path-effect36"
           inkscape:original-d="m 30.9525,133.08363 c -9.881109,5.42085 -16.042953,10.82155 -13.273722,6.61927 2.235094,-3.39173 -7.433023,4.48552 -10.6853527,7.61288"
           transform="matrix(-1,0,0,1,234.80011,-22.692116)"
           sodipodi:nodetypes="csc" />
      </g>
      <path
         id="path23"
         style="fill:#000000;stroke-width:2.54341"
         inkscape:label="m"
         d="m 349.86177,293.90149 c -0.82305,-5.26299 -22.1052,1.31538 -23.74619,4.18044 -2.01535,3.51862 -17.7208,43.89199 -17.7208,43.89199 0,0 -0.49694,-38.29601 -1.81953,-41.04615 -3.75467,-7.80727 -19.29723,-6.36092 -21.57134,-1.10414 -2.13018,4.92412 -26.63922,54.90101 -24.17441,76.5168 1.50909,13.23428 14.42053,6.1481 19.6493,-4.89714 6.69196,-14.13604 12.67638,-30.86335 12.67638,-30.86335 0,0 -1.93701,33.88523 -0.46922,39.76778 2.42423,9.71593 10.97812,12.29202 15.66629,2.69228 3.35047,-6.8605 13.51002,-40.02137 13.51002,-40.02137 -2.15213,37.68594 -2.04168,38.76175 -9.42071,64.46305 -2.19929,7.6492 -4.34801,14.93836 -7.11566,21.59597 -2.12962,5.12293 -4.57736,9.66481 -7.54235,13.18358 -2.91573,3.46029 -6.49721,6.00099 -9.95674,7.04123 -3.26017,0.98034 -7.12407,0.78354 -10.26805,-0.52234 -3.14398,-1.30591 -6.00911,-3.903 -7.61526,-6.9046 -1.60622,-3.00168 -2.17934,-6.8291 -1.52153,-10.16936 0.65776,-3.34018 2.63873,-6.65847 5.2631,-8.82698 4.50455,-3.72096 5.13954,-10.38906 1.41828,-14.89336 -3.72139,-4.50406 -10.38952,-5.1384 -14.89339,-1.41673 -6.49192,5.36427 -10.91859,12.78801 -12.54576,21.0508 -1.6272,8.26277 -0.34558,16.81145 3.62768,24.23671 3.97326,7.4252 10.37479,13.23612 18.15205,16.4665 7.77724,3.2304 16.40728,3.66417 24.47201,1.23908 8.3421,-2.50844 15.02195,-7.70112 20.04713,-13.66489 4.97596,-5.9053 8.2973,-12.44209 10.89823,-18.69871 3.364,-8.09216 5.69374,-16.16684 7.9083,-23.86918 1.28543,-9.91455 8.32396,-19.40349 8.47927,-32.40464 0,0 10.42869,-75.41193 8.6129,-87.02327 z"
         sodipodi:nodetypes="sscsssscsscsssssssccsssssssscs" />
      <path
         style="fill:#000000;stroke-width:2.54341"
         d="m 176.09624,296.77534 c -2.7051,4.01628 -18.41546,87.38391 -14.56229,91.53865 3.85318,4.15471 36.08411,-1.89054 40.62918,-3.8927 4.78887,-2.10967 2.55281,-14.07166 -2.48097,-15.50159 -4.02247,-1.14266 -18.79103,0.77715 -18.79103,0.77715 0,0 16.31642,-65.7847 15.1773,-71.41082 -1.08693,-5.36848 -16.69513,-6.37617 -19.97219,-1.51069 z"
         id="path24"
         inkscape:label="l"
         sodipodi:nodetypes="szsscss" />
      <path
         id="path25"
         style="display:inline;fill:#000000;stroke-width:0.957917"
         inkscape:label="p"
         d="m 249.03694,291.95435 c -5.60493,0.26591 -12.24053,2.0849 -12.24053,2.0849 l -12.82217,3.72485 c 0,0 -23.62749,85.57561 -18.4102,90.50365 5.2173,4.92799 19.3709,-3.82912 22.48441,-6.9964 C 231.16199,378.10407 235,355.54123 235,355.54123 l 11.28848,-2.45997 c 0,0 7.34108,-4.5538 10.1329,-7.95237 3.96905,-4.8317 6.68613,-10.8736 8.74499,-16.87652 1.10233,-3.21432 1.66784,-6.6312 1.83739,-9.97497 0.19396,-3.82813 0.0369,-7.74155 -0.95209,-11.29908 -0.90302,-3.25861 -2.41038,-6.34358 -4.4416,-8.82397 -2.0626,-2.51876 -4.55036,-4.96576 -7.59549,-5.82341 -1.35534,-0.38169 -3.10933,-0.46522 -4.97764,-0.37661 z M 238.4819,307.364 c 2.49243,0.52898 4.65279,0.3993 7.4391,3.41205 2.78633,3.01273 4.94737,5.7897 3.40142,13.98228 -0.4659,2.46904 -3.47163,8.63038 -7.30699,10.25285 -3.83533,1.62249 -9.13068,2.02113 -9.13068,2.02113 l 2.79859,-14.83264 z"
         sodipodi:nodetypes="scczzccssccssscsssccc" />
    </g>
  </g>
</svg>
