<?xml version="1.0" encoding="UTF-8" standalone="no"?>
<!-- Created with Inkscape (http://www.inkscape.org/) -->

<svg
   width="512"
   height="512"
   viewBox="0 0 512 512"
   version="1.1"
   id="svg1"
   inkscape:version="1.4.2 (f4327f4, 2025-05-13)"
   sodipodi:docname="logo.svg"
   xmlns:inkscape="http://www.inkscape.org/namespaces/inkscape"
   xmlns:sodipodi="http://sodipodi.sourceforge.net/DTD/sodipodi-0.dtd"
   xmlns="http://www.w3.org/2000/svg"
   xmlns:svg="http://www.w3.org/2000/svg">
  <sodipodi:namedview
     id="namedview1"
     pagecolor="#505050"
     bordercolor="#eeeeee"
     borderopacity="1"
     inkscape:showpageshadow="0"
     inkscape:pageopacity="0"
     inkscape:pagecheckerboard="0"
     inkscape:deskcolor="#505050"
     inkscape:document-units="px"
     inkscape:zoom="0.8125"
     inkscape:cx="252.30769"
     inkscape:cy="323.69231"
     inkscape:window-width="1920"
     inkscape:window-height="1009"
     inkscape:window-x="1432"
     inkscape:window-y="-8"
     inkscape:window-maximized="1"
     inkscape:current-layer="layer1" />
  <defs
     id="defs1">
    <filter
       inkscape:collect="always"
       style="color-interpolation-filters:sRGB"
       id="filter1"
       x="-0.15016466"
       y="-0.14245566"
       width="1.3003293"
       height="1.2849113">
      <feBlend
         mode="normal"
         id="feBlend1" />
      <feGaussianBlur
         inkscape:collect="always"
         stdDeviation="24.526375"
         id="feGaussianBlur1" />
    </filter>
  </defs>
  <g
     inkscape:label="Camada 1"
     inkscape:groupmode="layer"
     id="layer1">
    <rect
       style="display:none;fill:#7b277b;fill-opacity:1;stroke:none;stroke-width:13.0284;stroke-dasharray:none;stroke-opacity:1"
       id="rect3"
       width="512"
       height="512"
       x="0"
       y="0"
       ry="2.2423582" />
    <path
       id="path5"
       style="display:inline;fill:#8e2d8e;fill-opacity:1;stroke:none;stroke-width:4.35488;filter:url(#filter1)"
       inkscape:label="cabe"
       d="m 136.82186,49.397816 -2.96844,10.814467 -7.47084,5.210233 c 0,0 -14.01331,48.014554 -12.92263,72.457974 0.49923,11.18246 5.77797,21.6355 8.8349,32.4073 1.53803,5.41986 1.67889,11.58313 3.43318,16.90845 -2.96499,6.72352 -4.57025,13.77597 -4.62473,21.04193 -0.0137,2.34845 0.13961,4.67425 0.46432,6.97302 -1.30626,-0.41902 -2.62135,-0.81091 -3.93241,-1.20669 -4.7433,-1.19245 -9.46734,-2.50634 -14.25551,-3.5163 -0.42422,-0.0777 -2.33695,-0.45525 -2.82246,-0.44752 -2.211097,0.0274 -4.173344,0.8394 -6.293386,1.46474 -4.658474,1.37326 -7.764405,2.34106 -12.527117,3.80045 -11.637441,3.19829 -5.764516,1.66427 -17.619635,4.59794 l 3.699954,2.55408 c 11.94966,-2.94038 5.976916,-1.46884 17.917891,-4.41582 2.396296,-0.65702 4.79026,-1.3244 7.189799,-1.97016 3.695709,-0.99456 8.507324,-2.60298 12.420424,-2.45204 0.47852,0.0137 2.30564,0.35699 2.73619,0.4333 4.65625,0.95835 9.26922,2.14562 13.85511,3.39084 0.93899,4.94417 2.65328,9.75681 5.06419,14.39989 -1.73073,-0.27547 -3.46083,-0.56 -5.18977,-0.85361 -2.61643,-0.44362 -5.21834,-0.97646 -7.84278,-1.37042 -2.31314,-0.34661 -4.6542,-1.21186 -6.96528,-0.85101 -4.06186,0.63375 -7.828028,2.51346 -11.742191,3.77071 -23.056842,9.68078 -11.302198,4.67956 -35.256484,15.02314 l 2.048658,1.36577 c 24.384563,-10.20845 12.246207,-5.49214 36.394485,-14.20368 4.169712,-1.00492 8.248382,-2.51633 12.508372,-3.01412 2.26386,-0.2652 4.53987,0.43199 6.79568,0.75789 2.61801,0.37765 5.21424,0.89498 7.81927,1.35321 0.92861,0.16289 1.85774,0.32714 2.7865,0.49149 0.29497,0.50958 0.59881,1.01527 0.91051,1.51952 -1.76501,1.04374 -3.53299,2.07789 -5.27306,3.14283 -4.83655,2.95992 -11.31229,7.0175 -16.07024,9.98715 -10.042887,6.35959 -5.24278,3.25338 -14.414088,9.29648 l 4.00779,2.56031 c 8.876818,-6.23686 4.194798,-3.0581 14.071758,-9.48959 2.8408,-1.71666 5.65861,-3.47263 8.52268,-5.15048 3.85986,-2.26141 7.79004,-4.38866 11.73744,-6.48324 21.86836,30.40377 74.42518,51.77743 132.66346,51.6939 55.68177,-0.0777 101.27513,-19.75325 122.28242,-48.1054 1.70783,0.94415 3.40699,1.9073 5.0925,2.89474 2.86409,1.67785 5.68173,3.43382 8.52258,5.15048 9.87684,6.43149 5.19494,3.25273 14.07172,9.48959 l 4.0078,-2.56031 c -9.17114,-6.0431 -4.37124,-2.93689 -14.41409,-9.29648 -4.35727,-2.71964 -10.15396,-6.35211 -14.81442,-9.21789 1.5197,-2.32826 2.87717,-4.70827 4.06587,-7.13649 0.30661,-0.0517 0.61436,-0.0907 0.92087,-0.13961 2.25585,-0.32577 4.53201,-1.02304 6.7957,-0.75789 4.26002,0.49793 8.33867,2.00957 12.50838,3.01399 24.14826,8.71163 12.0099,3.99536 36.39462,14.20366 l 2.04852,-1.36576 c -23.95417,-10.34344 -12.19953,-5.34226 -35.25635,-15.02299 -3.91418,-1.25713 -7.6805,-3.13674 -11.74238,-3.77072 -2.31103,-0.36085 -4.6521,0.50439 -6.96521,0.85101 -1.20411,0.18101 -2.40329,0.39057 -3.60102,0.60657 2.12425,-4.84471 3.58276,-9.86532 4.3169,-15.01992 1.71867,-0.40998 3.44284,-0.79799 5.17242,-1.15363 0.43064,-0.0777 2.25581,-0.41389 2.7346,-0.43329 3.91314,-0.15126 8.72488,1.45747 12.42047,2.45193 2.39951,0.64534 4.79347,1.31297 7.18976,1.97011 11.94113,2.947 5.96826,1.47545 17.91787,4.41596 l 3.69997,-2.55407 c -11.85508,-2.93381 -5.98214,-1.39964 -17.61948,-4.59808 -4.76285,-1.45939 -7.86869,-2.42705 -12.52717,-3.80045 -2.12009,-0.62468 -4.08237,-1.43146 -6.29334,-1.4647 -0.48503,-0.007 -2.39889,0.36988 -2.82258,0.44749 -3.21549,0.67902 -6.40082,1.49327 -9.58377,2.317 0.1615,-1.64355 0.24843,-3.29927 0.26146,-4.96679 0.0275,-3.92049 -0.39452,-7.77879 -1.24034,-11.55388 5.20133,-6.17854 4.71536,-15.33343 7.00615,-23.0073 3.21819,-10.78072 8.65835,-21.24502 9.3247,-32.42929 1.45654,-24.44702 -11.84269,-72.423346 -11.84269,-72.423346 l -7.38754,-5.192987 -2.80851,-10.801905 -48.30311,33.925309 -36.74785,35.714849 -5.67801,6.19767 c -12.89081,-2.35283 -26.58984,-3.60906 -40.79481,-3.58863 -11.20792,0.0137 -22.1127,0.82773 -32.56427,2.34222 l -7.42994,-8.22586 -36.2172,-35.605043 z m 23.28355,133.710694 9.74076,4.53834 c 0,0 7.57586,2.61395 11.34504,3.97001 20.81756,7.4901 49.77485,12.95938 62.24157,23.01194 5.99861,4.83711 6.23839,20.36374 6.23839,20.36374 l -0.0274,0.0137 -5.78642,7.27281 -4.56184,3.30123 c 0,0 -6.50793,0.92861 -14.07343,2.78974 -19.13504,4.70785 -36.40342,-10.14222 -50.5291,-24.02929 -3.88597,-3.82014 -5.4804,-14.14718 -5.4804,-14.14718 l -8.39374,-26.33052 z m 205.47161,0 -0.71779,0.7566 -8.39378,26.33052 c 0,0 -1.59442,10.32704 -5.48022,14.14717 -14.12579,13.88708 -31.39406,28.73715 -50.52924,24.02916 -7.56539,-1.86137 -14.07333,-2.78947 -14.07333,-2.78947 l -4.56197,-3.30136 -5.78471,-7.27295 -0.0273,-0.0137 c 0,0 0.24056,-15.52663 6.23842,-20.3637 12.46658,-10.05247 41.42404,-15.52174 62.24161,-23.01184 3.76911,-1.35619 11.34499,-3.97002 11.34499,-3.97002 z m -90.75574,125.51145 c -4.27357,-0.0274 -8.6241,-0.10334 -12.79433,0.82387 -4.58709,1.0269 -10.09579,1.57917 -13.11546,5.18176 -20.44483,24.39104 -42.09656,71.63171 -19.03249,93.56242 6.21591,5.91053 19.02342,-0.16802 24.92558,-6.39221 6.41933,-6.76917 -1.03597,-20.78931 5.50533,-27.44033 2.79167,-2.83848 8.06784,-0.84711 11.66989,-2.54305 4.01607,-1.89064 7.64416,-4.80268 10.47552,-8.22125 4.17813,-5.04441 6.91727,-11.25046 9.04057,-17.44686 1.13293,-3.30653 1.72801,-6.82118 1.89938,-10.31202 0.19129,-3.90291 0.0777,-7.92066 -0.98422,-11.68101 -0.92475,-3.27617 -2.42087,-6.50007 -4.59175,-9.12231 -2.10323,-2.54036 -4.77113,-4.84354 -7.85221,-6.02021 -1.60699,-0.61304 -3.42569,-0.38024 -5.14581,-0.38932 z m -59.19304,0.5652 c -5.64386,-6.53045 -19.44261,-4.00341 -25.83129,1.8006 -23.60132,21.44065 -37.63622,71.15883 -15.75478,94.35211 9.23042,9.7836 31.95392,6.36801 40.1198,-4.32011 3.28456,-4.29907 1.62574,-12.60473 -2.56493,-16.02628 -3.26673,-2.66723 -9.92585,3.7675 -12.64031,0.54064 -16.7659,-19.93548 33.70397,-56.63795 16.67151,-76.34631 z m 173.10507,2.13013 c -6.31499,-5.3997 -18.09145,-0.90664 -24.54869,4.3217 -12.67653,10.26493 -18.31986,45.37553 -18.31986,45.37553 0,0 16.9285,-34.11396 6.59487,-45.37553 -6.94782,-7.57159 -22.67552,-4.52256 -30.77624,1.80055 -24.79095,19.35118 -47.21235,64.96934 -28.21273,90.0306 4.79816,6.32893 17.57956,4.19777 23.81576,-0.7204 12.79511,-10.09164 12.8237,-47.176 12.8237,-47.176 0,0 1.57648,4.29195 1.07479,13.09777 -0.70617,12.40177 -3.46527,31.00101 -2.54155,35.15984 1.06051,4.7749 10.71642,2.17863 14.65581,-0.72038 12.87078,-9.47149 16.48785,-45.016 16.48785,-45.016 l -3.66403,46.09592 c 0,0 -4.87874,15.30641 -10.78758,19.312 -26.1946,17.75738 -60.97926,-4.72328 -92.13573,0.82255 -5.99982,1.06829 -13.5203,10.93104 -9.89198,16.0688 28.22852,39.97042 112.43441,7.04793 143.55026,-30.7183 21.69959,-26.33722 27.8113,-80.18103 1.87483,-102.35827 z m -119.04385,16.99497 c 3.14525,-0.67902 4.7795,4.69002 5.73929,7.76105 0.47983,1.53455 -0.14885,4.82092 -0.14885,4.82092 0.0386,-0.0274 -1.55576,5.6198 -3.07843,7.83501 -2.28117,3.50716 -5.13481,10.92184 -8.816,8.93372 -8.80493,-4.75494 -3.47729,-27.23961 6.30422,-29.3507 z"
       sodipodi:nodetypes="cccsscscccssccccsscccsssccccsssccsccccscscsccccccssccccssccccsccccssccccssccccccsccccccsscccccsccccccsscccccsccaaaaaaaaaaaaaaaaaaaaaaacaaaacssaccssaaaaacaaaa" />
    <path
       id="path1"
       style="display:inline;fill:#000000;fill-opacity:1;stroke:none;stroke-width:4.35488"
       inkscape:label="cabe"
       d="m 136.82186,49.397816 -2.96844,10.814467 -7.47084,5.210233 c 0,0 -14.01331,48.014554 -12.92263,72.457974 0.49923,11.18246 5.77797,21.6355 8.8349,32.4073 1.53803,5.41986 1.67889,11.58313 3.43318,16.90845 -2.96499,6.72352 -4.57025,13.77597 -4.62473,21.04193 -0.0137,2.34845 0.13961,4.67425 0.46432,6.97302 -1.30626,-0.41902 -2.62135,-0.81091 -3.93241,-1.20669 -4.7433,-1.19245 -9.46734,-2.50634 -14.25551,-3.5163 -0.42422,-0.0777 -2.33695,-0.45525 -2.82246,-0.44752 -2.211097,0.0274 -4.173344,0.8394 -6.293386,1.46474 -4.658474,1.37326 -7.764405,2.34106 -12.527117,3.80045 -11.637441,3.19829 -5.764516,1.66427 -17.619635,4.59794 l 3.699954,2.55408 c 11.94966,-2.94038 5.976916,-1.46884 17.917891,-4.41582 2.396296,-0.65702 4.79026,-1.3244 7.189799,-1.97016 3.695709,-0.99456 8.507324,-2.60298 12.420424,-2.45204 0.47852,0.0137 2.30564,0.35699 2.73619,0.4333 4.65625,0.95835 9.26922,2.14562 13.85511,3.39084 0.93899,4.94417 2.65328,9.75681 5.06419,14.39989 -1.73073,-0.27547 -3.46083,-0.56 -5.18977,-0.85361 -2.61643,-0.44362 -5.21834,-0.97646 -7.84278,-1.37042 -2.31314,-0.34661 -4.6542,-1.21186 -6.96528,-0.85101 -4.06186,0.63375 -7.828028,2.51346 -11.742191,3.77071 -23.056842,9.68078 -11.302198,4.67956 -35.256484,15.02314 l 2.048658,1.36577 c 24.384563,-10.20845 12.246207,-5.49214 36.394485,-14.20368 4.169712,-1.00492 8.248382,-2.51633 12.508372,-3.01412 2.26386,-0.2652 4.53987,0.43199 6.79568,0.75789 2.61801,0.37765 5.21424,0.89498 7.81927,1.35321 0.92861,0.16289 1.85774,0.32714 2.7865,0.49149 0.29497,0.50958 0.59881,1.01527 0.91051,1.51952 -1.76501,1.04374 -3.53299,2.07789 -5.27306,3.14283 -4.83655,2.95992 -11.31229,7.0175 -16.07024,9.98715 -10.042887,6.35959 -5.24278,3.25338 -14.414088,9.29648 l 4.00779,2.56031 c 8.876818,-6.23686 4.194798,-3.0581 14.071758,-9.48959 2.8408,-1.71666 5.65861,-3.47263 8.52268,-5.15048 3.85986,-2.26141 7.79004,-4.38866 11.73744,-6.48324 21.86836,30.40377 74.42518,51.77743 132.66346,51.6939 55.68177,-0.0777 101.27513,-19.75325 122.28242,-48.1054 1.70783,0.94415 3.40699,1.9073 5.0925,2.89474 2.86409,1.67785 5.68173,3.43382 8.52258,5.15048 9.87684,6.43149 5.19494,3.25273 14.07172,9.48959 l 4.0078,-2.56031 c -9.17114,-6.0431 -4.37124,-2.93689 -14.41409,-9.29648 -4.35727,-2.71964 -10.15396,-6.35211 -14.81442,-9.21789 1.5197,-2.32826 2.87717,-4.70827 4.06587,-7.13649 0.30661,-0.0517 0.61436,-0.0907 0.92087,-0.13961 2.25585,-0.32577 4.53201,-1.02304 6.7957,-0.75789 4.26002,0.49793 8.33867,2.00957 12.50838,3.01399 24.14826,8.71163 12.0099,3.99536 36.39462,14.20366 l 2.04852,-1.36576 c -23.95417,-10.34344 -12.19953,-5.34226 -35.25635,-15.02299 -3.91418,-1.25713 -7.6805,-3.13674 -11.74238,-3.77072 -2.31103,-0.36085 -4.6521,0.50439 -6.96521,0.85101 -1.20411,0.18101 -2.40329,0.39057 -3.60102,0.60657 2.12425,-4.84471 3.58276,-9.86532 4.3169,-15.01992 1.71867,-0.40998 3.44284,-0.79799 5.17242,-1.15363 0.43064,-0.0777 2.25581,-0.41389 2.7346,-0.43329 3.91314,-0.15126 8.72488,1.45747 12.42047,2.45193 2.39951,0.64534 4.79347,1.31297 7.18976,1.97011 11.94113,2.947 5.96826,1.47545 17.91787,4.41596 l 3.69997,-2.55407 c -11.85508,-2.93381 -5.98214,-1.39964 -17.61948,-4.59808 -4.76285,-1.45939 -7.86869,-2.42705 -12.52717,-3.80045 -2.12009,-0.62468 -4.08237,-1.43146 -6.29334,-1.4647 -0.48503,-0.007 -2.39889,0.36988 -2.82258,0.44749 -3.21549,0.67902 -6.40082,1.49327 -9.58377,2.317 0.1615,-1.64355 0.24843,-3.29927 0.26146,-4.96679 0.0275,-3.92049 -0.39452,-7.77879 -1.24034,-11.55388 5.20133,-6.17854 4.71536,-15.33343 7.00615,-23.0073 3.21819,-10.78072 8.65835,-21.24502 9.3247,-32.42929 1.45654,-24.44702 -11.84269,-72.423346 -11.84269,-72.423346 l -7.38754,-5.192987 -2.80851,-10.801905 -48.30311,33.925309 -36.74785,35.714849 -5.67801,6.19767 c -12.89081,-2.35283 -26.58984,-3.60906 -40.79481,-3.58863 -11.20792,0.0137 -22.1127,0.82773 -32.56427,2.34222 l -7.42994,-8.22586 -36.2172,-35.605043 z m 23.28355,133.710694 9.74076,4.53834 c 0,0 7.57586,2.61395 11.34504,3.97001 20.81756,7.4901 49.77485,12.95938 62.24157,23.01194 5.99861,4.83711 6.23839,20.36374 6.23839,20.36374 l -0.0274,0.0137 -5.78642,7.27281 -4.56184,3.30123 c 0,0 -6.50793,0.92861 -14.07343,2.78974 -19.13504,4.70785 -36.40342,-10.14222 -50.5291,-24.02929 -3.88597,-3.82014 -5.4804,-14.14718 -5.4804,-14.14718 l -8.39374,-26.33052 z m 205.47161,0 -0.71779,0.7566 -8.39378,26.33052 c 0,0 -1.59442,10.32704 -5.48022,14.14717 -14.12579,13.88708 -31.39406,28.73715 -50.52924,24.02916 -7.56539,-1.86137 -14.07333,-2.78947 -14.07333,-2.78947 l -4.56197,-3.30136 -5.78471,-7.27295 -0.0273,-0.0137 c 0,0 0.24056,-15.52663 6.23842,-20.3637 12.46658,-10.05247 41.42404,-15.52174 62.24161,-23.01184 3.76911,-1.35619 11.34499,-3.97002 11.34499,-3.97002 z m -90.75574,125.51145 c -4.27357,-0.0274 -8.6241,-0.10334 -12.79433,0.82387 -4.58709,1.0269 -10.09579,1.57917 -13.11546,5.18176 -20.44483,24.39104 -42.09656,71.63171 -19.03249,93.56242 6.21591,5.91053 19.02342,-0.16802 24.92558,-6.39221 6.41933,-6.76917 -1.03597,-20.78931 5.50533,-27.44033 2.79167,-2.83848 8.06784,-0.84711 11.66989,-2.54305 4.01607,-1.89064 7.64416,-4.80268 10.47552,-8.22125 4.17813,-5.04441 6.91727,-11.25046 9.04057,-17.44686 1.13293,-3.30653 1.72801,-6.82118 1.89938,-10.31202 0.19129,-3.90291 0.0777,-7.92066 -0.98422,-11.68101 -0.92475,-3.27617 -2.42087,-6.50007 -4.59175,-9.12231 -2.10323,-2.54036 -4.77113,-4.84354 -7.85221,-6.02021 -1.60699,-0.61304 -3.42569,-0.38024 -5.14581,-0.38932 z m -59.19304,0.5652 c -5.64386,-6.53045 -19.44261,-4.00341 -25.83129,1.8006 -23.60132,21.44065 -37.63622,71.15883 -15.75478,94.35211 9.23042,9.7836 31.95392,6.36801 40.1198,-4.32011 3.28456,-4.29907 1.62574,-12.60473 -2.56493,-16.02628 -3.26673,-2.66723 -9.92585,3.7675 -12.64031,0.54064 -16.7659,-19.93548 33.70397,-56.63795 16.67151,-76.34631 z m 173.10507,2.13013 c -6.31499,-5.3997 -18.09145,-0.90664 -24.54869,4.3217 -12.67653,10.26493 -18.31986,45.37553 -18.31986,45.37553 0,0 16.9285,-34.11396 6.59487,-45.37553 -6.94782,-7.57159 -22.67552,-4.52256 -30.77624,1.80055 -24.79095,19.35118 -47.21235,64.96934 -28.21273,90.0306 4.79816,6.32893 17.57956,4.19777 23.81576,-0.7204 12.79511,-10.09164 12.8237,-47.176 12.8237,-47.176 0,0 1.57648,4.29195 1.07479,13.09777 -0.70617,12.40177 -3.46527,31.00101 -2.54155,35.15984 1.06051,4.7749 10.71642,2.17863 14.65581,-0.72038 12.87078,-9.47149 16.48785,-45.016 16.48785,-45.016 l -3.66403,46.09592 c 0,0 -4.87874,15.30641 -10.78758,19.312 -26.1946,17.75738 -60.97926,-4.72328 -92.13573,0.82255 -5.99982,1.06829 -13.5203,10.93104 -9.89198,16.0688 28.22852,39.97042 112.43441,7.04793 143.55026,-30.7183 21.69959,-26.33722 27.8113,-80.18103 1.87483,-102.35827 z m -119.04385,16.99497 c 3.14525,-0.67902 4.7795,4.69002 5.73929,7.76105 0.47983,1.53455 -0.14885,4.82092 -0.14885,4.82092 0.0386,-0.0274 -1.55576,5.6198 -3.07843,7.83501 -2.28117,3.50716 -5.13481,10.92184 -8.816,8.93372 -8.80493,-4.75494 -3.47729,-27.23961 6.30422,-29.3507 z"
       sodipodi:nodetypes="cccsscscccssccccsscccsssccccsssccsccccscscsccccccssccccssccccsccccssccccssccccccsccccccsscccccsccccccsscccccsccaaaaaaaaaaaaaaaaaaaaaaacaaaacssaccssaaaaacaaaa" />
  </g>
</svg>
