<?xml version="1.0" encoding="UTF-8" standalone="no"?>
<svg
   id="visual"
   viewBox="0 0 900 600"
   width="900"
   height="600"
   version="1.1"
   sodipodi:docname="wave_footer.svg"
   inkscape:version="1.4.2 (f4327f4, 2025-05-13)"
   xmlns:inkscape="http://www.inkscape.org/namespaces/inkscape"
   xmlns:sodipodi="http://sodipodi.sourceforge.net/DTD/sodipodi-0.dtd"
   xmlns="http://www.w3.org/2000/svg"
   xmlns:svg="http://www.w3.org/2000/svg">
  <defs
     id="defs5" />
  <sodipodi:namedview
     id="namedview5"
     pagecolor="#505050"
     bordercolor="#eeeeee"
     borderopacity="1"
     inkscape:showpageshadow="0"
     inkscape:pageopacity="0"
     inkscape:pagecheckerboard="0"
     inkscape:deskcolor="#505050"
     inkscape:zoom="1.35"
     inkscape:cx="450.37037"
     inkscape:cy="300"
     inkscape:window-width="1920"
     inkscape:window-height="1009"
     inkscape:window-x="1432"
     inkscape:window-y="-8"
     inkscape:window-maximized="1"
     inkscape:current-layer="visual" />
  <path
     d="M0 520L10.7 516.7C21.3 513.3 42.7 506.7 64.2 504.5C85.7 502.3 107.3 504.7 128.8 503C150.3 501.3 171.7 495.7 193 497.5C214.3 499.3 235.7 508.7 257 513.2C278.3 517.7 299.7 517.3 321.2 514.7C342.7 512 364.3 507 385.8 506.7C407.3 506.3 428.7 510.7 450 510.3C471.3 510 492.7 505 514.2 501.8C535.7 498.7 557.3 497.3 578.8 499.7C600.3 502 621.7 508 643 511.7C664.3 515.3 685.7 516.7 707 514.3C728.3 512 749.7 506 771.2 504.7C792.7 503.3 814.3 506.7 835.8 505C857.3 503.3 878.7 496.7 889.3 493.3L900 490L900 601L889.3 601C878.7 601 857.3 601 835.8 601C814.3 601 792.7 601 771.2 601C749.7 601 728.3 601 707 601C685.7 601 664.3 601 643 601C621.7 601 600.3 601 578.8 601C557.3 601 535.7 601 514.2 601C492.7 601 471.3 601 450 601C428.7 601 407.3 601 385.8 601C364.3 601 342.7 601 321.2 601C299.7 601 278.3 601 257 601C235.7 601 214.3 601 193 601C171.7 601 150.3 601 128.8 601C107.3 601 85.7 601 64.2 601C42.7 601 21.3 601 10.7 601L0 601Z"
     fill="#ba7fec"
     id="path1" />
  <path
     d="M0 534L10.7 530.8C21.3 527.7 42.7 521.3 64.2 518.3C85.7 515.3 107.3 515.7 128.8 516.5C150.3 517.3 171.7 518.7 193 518.3C214.3 518 235.7 516 257 516.3C278.3 516.7 299.7 519.3 321.2 520.5C342.7 521.7 364.3 521.3 385.8 523.3C407.3 525.3 428.7 529.7 450 531C471.3 532.3 492.7 530.7 514.2 529.5C535.7 528.3 557.3 527.7 578.8 526.5C600.3 525.3 621.7 523.7 643 522.2C664.3 520.7 685.7 519.3 707 522.2C728.3 525 749.7 532 771.2 534.3C792.7 536.7 814.3 534.3 835.8 529.5C857.3 524.7 878.7 517.3 889.3 513.7L900 510L900 601L889.3 601C878.7 601 857.3 601 835.8 601C814.3 601 792.7 601 771.2 601C749.7 601 728.3 601 707 601C685.7 601 664.3 601 643 601C621.7 601 600.3 601 578.8 601C557.3 601 535.7 601 514.2 601C492.7 601 471.3 601 450 601C428.7 601 407.3 601 385.8 601C364.3 601 342.7 601 321.2 601C299.7 601 278.3 601 257 601C235.7 601 214.3 601 193 601C171.7 601 150.3 601 128.8 601C107.3 601 85.7 601 64.2 601C42.7 601 21.3 601 10.7 601L0 601Z"
     fill="#9b67cb"
     id="path2" />
  <path
     d="M0 534L10.7 535.3C21.3 536.7 42.7 539.3 64.2 543C85.7 546.7 107.3 551.3 128.8 550.7C150.3 550 171.7 544 193 539.7C214.3 535.3 235.7 532.7 257 531.7C278.3 530.7 299.7 531.3 321.2 534.8C342.7 538.3 364.3 544.7 385.8 548.7C407.3 552.7 428.7 554.3 450 552.2C471.3 550 492.7 544 514.2 542.8C535.7 541.7 557.3 545.3 578.8 547.7C600.3 550 621.7 551 643 549.2C664.3 547.3 685.7 542.7 707 539.3C728.3 536 749.7 534 771.2 535.5C792.7 537 814.3 542 835.8 541.8C857.3 541.7 878.7 536.3 889.3 533.7L900 531L900 601L889.3 601C878.7 601 857.3 601 835.8 601C814.3 601 792.7 601 771.2 601C749.7 601 728.3 601 707 601C685.7 601 664.3 601 643 601C621.7 601 600.3 601 578.8 601C557.3 601 535.7 601 514.2 601C492.7 601 471.3 601 450 601C428.7 601 407.3 601 385.8 601C364.3 601 342.7 601 321.2 601C299.7 601 278.3 601 257 601C235.7 601 214.3 601 193 601C171.7 601 150.3 601 128.8 601C107.3 601 85.7 601 64.2 601C42.7 601 21.3 601 10.7 601L0 601Z"
     fill="#7e50aa"
     id="path3" />
  <path
     d="M0 554L10.7 555.3C21.3 556.7 42.7 559.3 64.2 559.7C85.7 560 107.3 558 128.8 559.2C150.3 560.3 171.7 564.7 193 563.3C214.3 562 235.7 555 257 555C278.3 555 299.7 562 321.2 566.3C342.7 570.7 364.3 572.3 385.8 569C407.3 565.7 428.7 557.3 450 554.7C471.3 552 492.7 555 514.2 555.5C535.7 556 557.3 554 578.8 554C600.3 554 621.7 556 643 559.7C664.3 563.3 685.7 568.7 707 570.8C728.3 573 749.7 572 771.2 570C792.7 568 814.3 565 835.8 564.3C857.3 563.7 878.7 565.3 889.3 566.2L900 567L900 601L889.3 601C878.7 601 857.3 601 835.8 601C814.3 601 792.7 601 771.2 601C749.7 601 728.3 601 707 601C685.7 601 664.3 601 643 601C621.7 601 600.3 601 578.8 601C557.3 601 535.7 601 514.2 601C492.7 601 471.3 601 450 601C428.7 601 407.3 601 385.8 601C364.3 601 342.7 601 321.2 601C299.7 601 278.3 601 257 601C235.7 601 214.3 601 193 601C171.7 601 150.3 601 128.8 601C107.3 601 85.7 601 64.2 601C42.7 601 21.3 601 10.7 601L0 601Z"
     fill="#623a8b"
     id="path4" />
  <path
     d="M0 577L10.7 576.5C21.3 576 42.7 575 64.2 576.7C85.7 578.3 107.3 582.7 128.8 583.2C150.3 583.7 171.7 580.3 193 579.3C214.3 578.3 235.7 579.7 257 581.5C278.3 583.3 299.7 585.7 321.2 585.2C342.7 584.7 364.3 581.3 385.8 578.3C407.3 575.3 428.7 572.7 450 572.2C471.3 571.7 492.7 573.3 514.2 574.7C535.7 576 557.3 577 578.8 578C600.3 579 621.7 580 643 581.3C664.3 582.7 685.7 584.3 707 583C728.3 581.7 749.7 577.3 771.2 575.7C792.7 574 814.3 575 835.8 575.5C857.3 576 878.7 576 889.3 576L900 576L900 601L889.3 601C878.7 601 857.3 601 835.8 601C814.3 601 792.7 601 771.2 601C749.7 601 728.3 601 707 601C685.7 601 664.3 601 643 601C621.7 601 600.3 601 578.8 601C557.3 601 535.7 601 514.2 601C492.7 601 471.3 601 450 601C428.7 601 407.3 601 385.8 601C364.3 601 342.7 601 321.2 601C299.7 601 278.3 601 257 601C235.7 601 214.3 601 193 601C171.7 601 150.3 601 128.8 601C107.3 601 85.7 601 64.2 601C42.7 601 21.3 601 10.7 601L0 601Z"
     fill="#47246d"
     id="path5" />
</svg>
