<?xml version="1.0" encoding="UTF-8" standalone="no"?>
<!-- Uploaded to: SVG Repo, www.svgrepo.com, Generator: SVG Repo Mixer Tools -->

<svg
   width="512"
   height="512"
   viewBox="0 -3 12.8 12.8"
   version="1.1"
   id="svg1"
   sodipodi:docname="youtube-168-svgrepo-com.svg"
   inkscape:version="1.4.2 (f4327f4, 2025-05-13)"
   xmlns:inkscape="http://www.inkscape.org/namespaces/inkscape"
   xmlns:sodipodi="http://sodipodi.sourceforge.net/DTD/sodipodi-0.dtd"
   xmlns="http://www.w3.org/2000/svg"
   xmlns:svg="http://www.w3.org/2000/svg"
   xmlns:rdf="http://www.w3.org/1999/02/22-rdf-syntax-ns#"
   xmlns:cc="http://creativecommons.org/ns#"
   xmlns:dc="http://purl.org/dc/elements/1.1/">
  <sodipodi:namedview
     id="namedview1"
     pagecolor="#505050"
     bordercolor="#eeeeee"
     borderopacity="1"
     inkscape:showpageshadow="0"
     inkscape:pageopacity="0"
     inkscape:pagecheckerboard="0"
     inkscape:deskcolor="#505050"
     inkscape:zoom="1.4707821"
     inkscape:cx="331.79626"
     inkscape:cy="266.52486"
     inkscape:window-width="1920"
     inkscape:window-height="1009"
     inkscape:window-x="1432"
     inkscape:window-y="-8"
     inkscape:window-maximized="1"
     inkscape:current-layer="svg1" />
  <title
     id="title1">youtube [#168]</title>
  <desc
     id="desc1">Created with Sketch.</desc>
  <defs
     id="defs1" />
  <path
     d="m 251.98843,7291.5859 v -5.6117 c 1.99221,0.9375 3.53517,1.843 5.36003,2.8193 -1.50511,0.8347 -3.36782,1.7712 -5.36003,2.7924 m 11.10257,-8.403 c -0.34366,-0.4528 -0.92937,-0.8048 -1.55293,-0.9215 -1.83283,-0.348 -13.2671,-0.349 -15.09893,0 -0.50004,0.094 -0.9453,0.3201 -1.32781,0.6722 -1.61169,1.4959 -1.10667,9.5179 -0.71819,10.8174 0.16336,0.5624 0.37454,0.9683 0.6405,1.2346 0.34266,0.352 0.81182,0.5943 1.35071,0.703 1.5091,0.3122 9.28369,0.4867 15.12185,0.047 0.53789,-0.094 1.01403,-0.344 1.38956,-0.711 1.49017,-1.49 1.38857,-9.9628 0.19524,-11.8416"
     id="youtube-[#168]"
     transform="matrix(0.60005805,0,0,0.60005805,-146.01474,-4370.4232)"
     style="fill:#ffffff;fill-opacity:1" />
  <metadata
     id="metadata1">
    <rdf:RDF>
      <cc:Work
         rdf:about="">
        <dc:title>youtube [#168]</dc:title>
      </cc:Work>
    </rdf:RDF>
  </metadata>
</svg>
